<mxfile host="www.draw.io" modified="2019-10-21T01:31:27.269Z" agent="Mozilla/5.0 (Windows NT 10.0; Win64; x64) AppleWebKit/537.36 (KHTML, like Gecko) Chrome/77.0.3865.120 Safari/537.36" etag="gm2wVu8N8YQ1Dp9Vms42" version="12.1.3" type="github" pages="1">
  <diagram id="CbqubE26liiaIoYuW3zU" name="Page-1">
    <mxGraphModel dx="2179" dy="1113" grid="1" gridSize="10" guides="1" tooltips="1" connect="1" arrows="1" fold="1" page="1" pageScale="1" pageWidth="827" pageHeight="1169" math="0" shadow="0">
      <root>
        <mxCell id="0"/>
        <mxCell id="1" parent="0"/>
        <mxCell id="TBT-of8__Zpy7oLFt57h-6" value="" style="edgeStyle=orthogonalEdgeStyle;rounded=0;orthogonalLoop=1;jettySize=auto;html=1;fontFamily=Verdana;" edge="1" parent="1" source="TBT-of8__Zpy7oLFt57h-1" target="TBT-of8__Zpy7oLFt57h-2">
          <mxGeometry relative="1" as="geometry"/>
        </mxCell>
        <mxCell id="TBT-of8__Zpy7oLFt57h-1" value="&lt;font style=&quot;font-size: 16px&quot;&gt;&lt;b&gt;시작 화면&lt;/b&gt;&lt;/font&gt;" style="rounded=0;whiteSpace=wrap;html=1;fillColor=#e1d5e7;strokeColor=#9673a6;fontFamily=Verdana;" vertex="1" parent="1">
          <mxGeometry x="-80" y="40" width="120" height="60" as="geometry"/>
        </mxCell>
        <mxCell id="TBT-of8__Zpy7oLFt57h-7" value="" style="edgeStyle=orthogonalEdgeStyle;rounded=0;orthogonalLoop=1;jettySize=auto;html=1;fontFamily=Verdana;" edge="1" parent="1" source="TBT-of8__Zpy7oLFt57h-2" target="TBT-of8__Zpy7oLFt57h-3">
          <mxGeometry relative="1" as="geometry"/>
        </mxCell>
        <mxCell id="TBT-of8__Zpy7oLFt57h-10" style="edgeStyle=orthogonalEdgeStyle;rounded=0;orthogonalLoop=1;jettySize=auto;html=1;entryX=0;entryY=0.25;entryDx=0;entryDy=0;fontFamily=Verdana;" edge="1" parent="1" source="TBT-of8__Zpy7oLFt57h-2" target="TBT-of8__Zpy7oLFt57h-4">
          <mxGeometry relative="1" as="geometry">
            <mxPoint x="290" y="220" as="targetPoint"/>
            <Array as="points">
              <mxPoint x="240" y="175"/>
            </Array>
          </mxGeometry>
        </mxCell>
        <mxCell id="TBT-of8__Zpy7oLFt57h-2" value="&lt;font style=&quot;font-size: 14px&quot;&gt;튜토리얼을&lt;br&gt;진행하였는가?&lt;/font&gt;" style="rhombus;whiteSpace=wrap;html=1;fillColor=#fff2cc;strokeColor=#d6b656;fontFamily=Verdana;" vertex="1" parent="1">
          <mxGeometry x="80" y="30" width="120" height="80" as="geometry"/>
        </mxCell>
        <mxCell id="TBT-of8__Zpy7oLFt57h-11" value="" style="edgeStyle=orthogonalEdgeStyle;rounded=0;orthogonalLoop=1;jettySize=auto;html=1;fontFamily=Verdana;" edge="1" parent="1" source="TBT-of8__Zpy7oLFt57h-3" target="TBT-of8__Zpy7oLFt57h-4">
          <mxGeometry relative="1" as="geometry"/>
        </mxCell>
        <mxCell id="TBT-of8__Zpy7oLFt57h-3" value="&lt;font style=&quot;font-size: 16px&quot;&gt;&lt;b&gt;튜토리얼&lt;/b&gt;&lt;/font&gt;" style="rounded=0;whiteSpace=wrap;html=1;fillColor=#dae8fc;strokeColor=#6c8ebf;fontFamily=Verdana;" vertex="1" parent="1">
          <mxGeometry x="320" y="40" width="120" height="60" as="geometry"/>
        </mxCell>
        <mxCell id="TBT-of8__Zpy7oLFt57h-13" value="" style="edgeStyle=orthogonalEdgeStyle;rounded=0;orthogonalLoop=1;jettySize=auto;html=1;exitX=0.75;exitY=0;exitDx=0;exitDy=0;fontFamily=Verdana;" edge="1" parent="1" source="TBT-of8__Zpy7oLFt57h-4" target="TBT-of8__Zpy7oLFt57h-12">
          <mxGeometry relative="1" as="geometry"/>
        </mxCell>
        <mxCell id="TBT-of8__Zpy7oLFt57h-25" style="edgeStyle=orthogonalEdgeStyle;rounded=0;orthogonalLoop=1;jettySize=auto;html=1;exitX=0;exitY=0.5;exitDx=0;exitDy=0;entryX=1;entryY=0.5;entryDx=0;entryDy=0;fontFamily=Verdana;" edge="1" parent="1" source="TBT-of8__Zpy7oLFt57h-4" target="TBT-of8__Zpy7oLFt57h-24">
          <mxGeometry relative="1" as="geometry">
            <Array as="points">
              <mxPoint x="99" y="190"/>
              <mxPoint x="99" y="230"/>
            </Array>
          </mxGeometry>
        </mxCell>
        <mxCell id="TBT-of8__Zpy7oLFt57h-34" style="edgeStyle=orthogonalEdgeStyle;rounded=0;orthogonalLoop=1;jettySize=auto;html=1;exitX=0;exitY=0.75;exitDx=0;exitDy=0;entryX=1;entryY=0.5;entryDx=0;entryDy=0;fontFamily=Verdana;fontSize=16;" edge="1" parent="1" source="TBT-of8__Zpy7oLFt57h-4" target="TBT-of8__Zpy7oLFt57h-33">
          <mxGeometry relative="1" as="geometry">
            <Array as="points">
              <mxPoint x="119" y="205"/>
              <mxPoint x="119" y="330"/>
            </Array>
          </mxGeometry>
        </mxCell>
        <mxCell id="TBT-of8__Zpy7oLFt57h-50" style="edgeStyle=orthogonalEdgeStyle;rounded=0;orthogonalLoop=1;jettySize=auto;html=1;entryX=0;entryY=0.5;entryDx=0;entryDy=0;fontFamily=Verdana;fontSize=16;exitX=1;exitY=0.5;exitDx=0;exitDy=0;" edge="1" parent="1" source="TBT-of8__Zpy7oLFt57h-4" target="TBT-of8__Zpy7oLFt57h-20">
          <mxGeometry relative="1" as="geometry">
            <mxPoint x="450" y="270" as="sourcePoint"/>
            <Array as="points">
              <mxPoint x="500" y="190"/>
              <mxPoint x="500" y="330"/>
            </Array>
          </mxGeometry>
        </mxCell>
        <mxCell id="TBT-of8__Zpy7oLFt57h-51" style="edgeStyle=orthogonalEdgeStyle;rounded=0;orthogonalLoop=1;jettySize=auto;html=1;exitX=1;exitY=0.75;exitDx=0;exitDy=0;entryX=0;entryY=0.5;entryDx=0;entryDy=0;fontFamily=Verdana;fontSize=16;" edge="1" parent="1" source="TBT-of8__Zpy7oLFt57h-4" target="TBT-of8__Zpy7oLFt57h-22">
          <mxGeometry relative="1" as="geometry">
            <Array as="points">
              <mxPoint x="480" y="205"/>
              <mxPoint x="480" y="410"/>
            </Array>
          </mxGeometry>
        </mxCell>
        <mxCell id="TBT-of8__Zpy7oLFt57h-54" style="edgeStyle=orthogonalEdgeStyle;rounded=0;orthogonalLoop=1;jettySize=auto;html=1;exitX=0.25;exitY=1;exitDx=0;exitDy=0;entryX=1;entryY=0.5;entryDx=0;entryDy=0;fontFamily=Verdana;fontSize=16;" edge="1" parent="1" source="TBT-of8__Zpy7oLFt57h-4" target="TBT-of8__Zpy7oLFt57h-53">
          <mxGeometry relative="1" as="geometry"/>
        </mxCell>
        <mxCell id="TBT-of8__Zpy7oLFt57h-57" style="edgeStyle=orthogonalEdgeStyle;rounded=0;orthogonalLoop=1;jettySize=auto;html=1;exitX=0.75;exitY=1;exitDx=0;exitDy=0;entryX=0;entryY=0.5;entryDx=0;entryDy=0;fontFamily=Verdana;fontSize=16;" edge="1" parent="1" source="TBT-of8__Zpy7oLFt57h-4" target="TBT-of8__Zpy7oLFt57h-52">
          <mxGeometry relative="1" as="geometry"/>
        </mxCell>
        <mxCell id="TBT-of8__Zpy7oLFt57h-59" style="edgeStyle=orthogonalEdgeStyle;rounded=0;orthogonalLoop=1;jettySize=auto;html=1;exitX=1;exitY=0.25;exitDx=0;exitDy=0;entryX=0;entryY=0.25;entryDx=0;entryDy=0;fontFamily=Verdana;fontSize=16;" edge="1" parent="1" source="TBT-of8__Zpy7oLFt57h-4" target="TBT-of8__Zpy7oLFt57h-41">
          <mxGeometry relative="1" as="geometry"/>
        </mxCell>
        <mxCell id="TBT-of8__Zpy7oLFt57h-4" value="&lt;font style=&quot;font-size: 20px&quot;&gt;&lt;b&gt;메인 화면&lt;/b&gt;&lt;/font&gt;" style="rounded=0;whiteSpace=wrap;html=1;fillColor=#e1d5e7;strokeColor=#9673a6;fontFamily=Verdana;" vertex="1" parent="1">
          <mxGeometry x="320" y="160" width="120" height="60" as="geometry"/>
        </mxCell>
        <mxCell id="TBT-of8__Zpy7oLFt57h-15" value="" style="edgeStyle=orthogonalEdgeStyle;rounded=0;orthogonalLoop=1;jettySize=auto;html=1;fontFamily=Verdana;" edge="1" parent="1" source="TBT-of8__Zpy7oLFt57h-12" target="TBT-of8__Zpy7oLFt57h-14">
          <mxGeometry relative="1" as="geometry"/>
        </mxCell>
        <mxCell id="TBT-of8__Zpy7oLFt57h-18" style="edgeStyle=orthogonalEdgeStyle;rounded=0;orthogonalLoop=1;jettySize=auto;html=1;exitX=1;exitY=0.5;exitDx=0;exitDy=0;entryX=0;entryY=0.5;entryDx=0;entryDy=0;fontFamily=Verdana;" edge="1" parent="1" source="TBT-of8__Zpy7oLFt57h-12" target="TBT-of8__Zpy7oLFt57h-16">
          <mxGeometry relative="1" as="geometry">
            <Array as="points">
              <mxPoint x="759" y="70"/>
              <mxPoint x="759" y="150"/>
            </Array>
          </mxGeometry>
        </mxCell>
        <mxCell id="TBT-of8__Zpy7oLFt57h-19" style="edgeStyle=orthogonalEdgeStyle;rounded=0;orthogonalLoop=1;jettySize=auto;html=1;exitX=1;exitY=0.5;exitDx=0;exitDy=0;entryX=0;entryY=0.5;entryDx=0;entryDy=0;fontFamily=Verdana;" edge="1" parent="1" source="TBT-of8__Zpy7oLFt57h-12" target="TBT-of8__Zpy7oLFt57h-17">
          <mxGeometry relative="1" as="geometry">
            <Array as="points">
              <mxPoint x="759" y="70"/>
              <mxPoint x="759" y="230"/>
            </Array>
          </mxGeometry>
        </mxCell>
        <mxCell id="TBT-of8__Zpy7oLFt57h-12" value="&lt;font size=&quot;1&quot;&gt;&lt;span style=&quot;font-size: 16px&quot;&gt;&lt;b&gt;설정&lt;/b&gt;&lt;/span&gt;&lt;/font&gt;" style="rounded=0;whiteSpace=wrap;html=1;fillColor=#d5e8d4;strokeColor=#82b366;fontFamily=Verdana;" vertex="1" parent="1">
          <mxGeometry x="560" y="40" width="120" height="60" as="geometry"/>
        </mxCell>
        <mxCell id="TBT-of8__Zpy7oLFt57h-14" value="&lt;font size=&quot;1&quot;&gt;&lt;span style=&quot;font-size: 16px&quot;&gt;&lt;b&gt;효과음&lt;/b&gt;&lt;br&gt;ON/OFF&lt;br&gt;&lt;/span&gt;&lt;/font&gt;" style="rounded=0;whiteSpace=wrap;html=1;fillColor=#d5e8d4;strokeColor=#82b366;fontFamily=Verdana;" vertex="1" parent="1">
          <mxGeometry x="800" y="40" width="120" height="60" as="geometry"/>
        </mxCell>
        <mxCell id="TBT-of8__Zpy7oLFt57h-16" value="&lt;font&gt;&lt;span style=&quot;font-size: 16px&quot;&gt;&lt;b&gt;배경음&lt;/b&gt;&lt;br&gt;ON/OFF&lt;br&gt;&lt;/span&gt;&lt;/font&gt;" style="rounded=0;whiteSpace=wrap;html=1;fillColor=#d5e8d4;strokeColor=#82b366;fontFamily=Verdana;" vertex="1" parent="1">
          <mxGeometry x="800" y="120" width="120" height="60" as="geometry"/>
        </mxCell>
        <mxCell id="TBT-of8__Zpy7oLFt57h-17" value="&lt;font size=&quot;1&quot;&gt;&lt;span style=&quot;font-size: 16px&quot;&gt;&lt;b&gt;언어&lt;/b&gt;&lt;br&gt;한국어/일본어&lt;br&gt;/중국어/영어&lt;br&gt;&lt;/span&gt;&lt;/font&gt;" style="rounded=0;whiteSpace=wrap;html=1;fillColor=#d5e8d4;strokeColor=#82b366;fontFamily=Verdana;" vertex="1" parent="1">
          <mxGeometry x="800" y="200" width="120" height="60" as="geometry"/>
        </mxCell>
        <mxCell id="TBT-of8__Zpy7oLFt57h-20" value="&lt;font style=&quot;font-size: 16px&quot;&gt;업적&lt;br&gt;(Play 게임)&lt;br&gt;&lt;/font&gt;" style="rounded=0;whiteSpace=wrap;html=1;fillColor=#ffe6cc;strokeColor=#d79b00;fontFamily=Verdana;" vertex="1" parent="1">
          <mxGeometry x="560" y="300" width="120" height="60" as="geometry"/>
        </mxCell>
        <mxCell id="TBT-of8__Zpy7oLFt57h-22" value="&lt;font style=&quot;font-size: 16px&quot;&gt;리더보드&lt;br&gt;&lt;/font&gt;&lt;span style=&quot;font-size: 16px&quot;&gt;(Play 게임)&lt;/span&gt;" style="rounded=0;whiteSpace=wrap;html=1;fillColor=#ffe6cc;strokeColor=#d79b00;fontFamily=Verdana;" vertex="1" parent="1">
          <mxGeometry x="560" y="380" width="120" height="60" as="geometry"/>
        </mxCell>
        <mxCell id="TBT-of8__Zpy7oLFt57h-30" style="edgeStyle=orthogonalEdgeStyle;rounded=0;orthogonalLoop=1;jettySize=auto;html=1;exitX=0;exitY=0.5;exitDx=0;exitDy=0;entryX=1;entryY=0.5;entryDx=0;entryDy=0;fontFamily=Verdana;" edge="1" parent="1" source="TBT-of8__Zpy7oLFt57h-24" target="TBT-of8__Zpy7oLFt57h-27">
          <mxGeometry relative="1" as="geometry"/>
        </mxCell>
        <mxCell id="TBT-of8__Zpy7oLFt57h-31" style="edgeStyle=orthogonalEdgeStyle;rounded=0;orthogonalLoop=1;jettySize=auto;html=1;exitX=0;exitY=0.5;exitDx=0;exitDy=0;entryX=1;entryY=0.5;entryDx=0;entryDy=0;fontFamily=Verdana;" edge="1" parent="1" source="TBT-of8__Zpy7oLFt57h-24" target="TBT-of8__Zpy7oLFt57h-28">
          <mxGeometry relative="1" as="geometry"/>
        </mxCell>
        <mxCell id="TBT-of8__Zpy7oLFt57h-43" style="edgeStyle=orthogonalEdgeStyle;rounded=0;orthogonalLoop=1;jettySize=auto;html=1;exitX=0;exitY=0.5;exitDx=0;exitDy=0;entryX=1;entryY=0.5;entryDx=0;entryDy=0;fontFamily=Verdana;fontSize=16;" edge="1" parent="1" source="TBT-of8__Zpy7oLFt57h-24" target="TBT-of8__Zpy7oLFt57h-26">
          <mxGeometry relative="1" as="geometry"/>
        </mxCell>
        <mxCell id="TBT-of8__Zpy7oLFt57h-24" value="&lt;font size=&quot;1&quot;&gt;&lt;span style=&quot;font-size: 16px&quot;&gt;&lt;b&gt;공유&lt;/b&gt;&lt;/span&gt;&lt;/font&gt;" style="rounded=0;whiteSpace=wrap;html=1;fillColor=#d5e8d4;strokeColor=#82b366;fontFamily=Verdana;" vertex="1" parent="1">
          <mxGeometry x="-40" y="200" width="120" height="60" as="geometry"/>
        </mxCell>
        <mxCell id="TBT-of8__Zpy7oLFt57h-26" value="&lt;font style=&quot;font-size: 16px;&quot;&gt;&lt;span style=&quot;font-size: 16px;&quot;&gt;&lt;span style=&quot;font-size: 16px;&quot;&gt;페이스북&lt;/span&gt;&lt;br style=&quot;font-size: 16px;&quot;&gt;&lt;/span&gt;&lt;/font&gt;" style="rounded=0;whiteSpace=wrap;html=1;fillColor=#d5e8d4;strokeColor=#82b366;fontFamily=Verdana;fontSize=16;fontStyle=0" vertex="1" parent="1">
          <mxGeometry x="-200" y="120" width="120" height="60" as="geometry"/>
        </mxCell>
        <mxCell id="TBT-of8__Zpy7oLFt57h-27" value="&lt;span style=&quot;font-size: 16px;&quot;&gt;트위터&lt;/span&gt;" style="rounded=0;whiteSpace=wrap;html=1;fillColor=#d5e8d4;strokeColor=#82b366;fontFamily=Verdana;fontSize=16;fontStyle=0" vertex="1" parent="1">
          <mxGeometry x="-200" y="200" width="120" height="60" as="geometry"/>
        </mxCell>
        <mxCell id="TBT-of8__Zpy7oLFt57h-28" value="&lt;font style=&quot;font-size: 16px;&quot;&gt;&lt;span style=&quot;font-size: 16px;&quot;&gt;&lt;span style=&quot;font-size: 16px;&quot;&gt;그 외&lt;/span&gt;&lt;br style=&quot;font-size: 16px;&quot;&gt;&lt;/span&gt;&lt;/font&gt;" style="rounded=0;whiteSpace=wrap;html=1;fillColor=#d5e8d4;strokeColor=#82b366;fontFamily=Verdana;fontSize=16;fontStyle=0" vertex="1" parent="1">
          <mxGeometry x="-200" y="280" width="120" height="60" as="geometry"/>
        </mxCell>
        <mxCell id="TBT-of8__Zpy7oLFt57h-39" style="edgeStyle=orthogonalEdgeStyle;rounded=0;orthogonalLoop=1;jettySize=auto;html=1;exitX=0.5;exitY=1;exitDx=0;exitDy=0;entryX=0.5;entryY=0;entryDx=0;entryDy=0;fontFamily=Verdana;fontSize=16;" edge="1" parent="1" source="TBT-of8__Zpy7oLFt57h-33" target="TBT-of8__Zpy7oLFt57h-35">
          <mxGeometry relative="1" as="geometry"/>
        </mxCell>
        <mxCell id="TBT-of8__Zpy7oLFt57h-40" style="edgeStyle=orthogonalEdgeStyle;rounded=0;orthogonalLoop=1;jettySize=auto;html=1;exitX=0.5;exitY=1;exitDx=0;exitDy=0;entryX=0.5;entryY=0;entryDx=0;entryDy=0;fontFamily=Verdana;fontSize=16;" edge="1" parent="1" source="TBT-of8__Zpy7oLFt57h-33" target="TBT-of8__Zpy7oLFt57h-36">
          <mxGeometry relative="1" as="geometry"/>
        </mxCell>
        <mxCell id="TBT-of8__Zpy7oLFt57h-33" value="&lt;span style=&quot;font-size: 16px&quot;&gt;&lt;b&gt;저장&lt;/b&gt;&lt;/span&gt;" style="rounded=0;whiteSpace=wrap;html=1;fillColor=#d5e8d4;strokeColor=#82b366;fontFamily=Verdana;" vertex="1" parent="1">
          <mxGeometry x="-40" y="300" width="120" height="60" as="geometry"/>
        </mxCell>
        <mxCell id="TBT-of8__Zpy7oLFt57h-35" value="&lt;span style=&quot;font-size: 16px&quot;&gt;저장하기&lt;/span&gt;" style="rounded=0;whiteSpace=wrap;html=1;fillColor=#d5e8d4;strokeColor=#82b366;fontFamily=Verdana;" vertex="1" parent="1">
          <mxGeometry x="-200" y="400" width="120" height="60" as="geometry"/>
        </mxCell>
        <mxCell id="TBT-of8__Zpy7oLFt57h-36" value="&lt;span style=&quot;font-size: 16px&quot;&gt;불러오기&lt;/span&gt;" style="rounded=0;whiteSpace=wrap;html=1;fillColor=#d5e8d4;strokeColor=#82b366;fontFamily=Verdana;" vertex="1" parent="1">
          <mxGeometry x="-40" y="400" width="120" height="60" as="geometry"/>
        </mxCell>
        <mxCell id="TBT-of8__Zpy7oLFt57h-47" style="edgeStyle=orthogonalEdgeStyle;rounded=0;orthogonalLoop=1;jettySize=auto;html=1;exitX=1;exitY=0.5;exitDx=0;exitDy=0;entryX=0;entryY=0.5;entryDx=0;entryDy=0;fontFamily=Verdana;fontSize=16;" edge="1" parent="1" source="TBT-of8__Zpy7oLFt57h-41" target="TBT-of8__Zpy7oLFt57h-44">
          <mxGeometry relative="1" as="geometry"/>
        </mxCell>
        <mxCell id="TBT-of8__Zpy7oLFt57h-48" style="edgeStyle=orthogonalEdgeStyle;rounded=0;orthogonalLoop=1;jettySize=auto;html=1;exitX=1;exitY=0.5;exitDx=0;exitDy=0;entryX=0;entryY=0.5;entryDx=0;entryDy=0;fontFamily=Verdana;fontSize=16;" edge="1" parent="1" source="TBT-of8__Zpy7oLFt57h-41" target="TBT-of8__Zpy7oLFt57h-45">
          <mxGeometry relative="1" as="geometry"/>
        </mxCell>
        <mxCell id="TBT-of8__Zpy7oLFt57h-49" style="edgeStyle=orthogonalEdgeStyle;rounded=0;orthogonalLoop=1;jettySize=auto;html=1;exitX=1;exitY=0.5;exitDx=0;exitDy=0;entryX=0;entryY=0.5;entryDx=0;entryDy=0;fontFamily=Verdana;fontSize=16;" edge="1" parent="1" source="TBT-of8__Zpy7oLFt57h-41" target="TBT-of8__Zpy7oLFt57h-46">
          <mxGeometry relative="1" as="geometry"/>
        </mxCell>
        <mxCell id="TBT-of8__Zpy7oLFt57h-58" value="" style="edgeStyle=orthogonalEdgeStyle;rounded=0;orthogonalLoop=1;jettySize=auto;html=1;fontFamily=Verdana;fontSize=16;" edge="1" parent="1" source="TBT-of8__Zpy7oLFt57h-41" target="TBT-of8__Zpy7oLFt57h-20">
          <mxGeometry relative="1" as="geometry"/>
        </mxCell>
        <mxCell id="TBT-of8__Zpy7oLFt57h-41" value="&lt;font size=&quot;1&quot;&gt;&lt;span style=&quot;font-size: 16px&quot;&gt;&lt;b&gt;도움말&lt;/b&gt;&lt;/span&gt;&lt;/font&gt;" style="rounded=0;whiteSpace=wrap;html=1;fillColor=#d5e8d4;strokeColor=#82b366;fontFamily=Verdana;" vertex="1" parent="1">
          <mxGeometry x="560" y="160" width="120" height="60" as="geometry"/>
        </mxCell>
        <mxCell id="TBT-of8__Zpy7oLFt57h-44" value="&lt;font style=&quot;font-size: 16px&quot;&gt;&lt;span style=&quot;font-size: 16px&quot;&gt;&lt;span style=&quot;font-size: 16px&quot;&gt;도움말 보기&lt;/span&gt;&lt;br style=&quot;font-size: 16px&quot;&gt;&lt;/span&gt;&lt;/font&gt;" style="rounded=0;whiteSpace=wrap;html=1;fillColor=#d5e8d4;strokeColor=#82b366;fontFamily=Verdana;fontSize=16;fontStyle=0" vertex="1" parent="1">
          <mxGeometry x="760" y="300" width="120" height="60" as="geometry"/>
        </mxCell>
        <mxCell id="TBT-of8__Zpy7oLFt57h-45" value="&lt;span style=&quot;font-size: 16px&quot;&gt;게임 방법&lt;br&gt;익히기&lt;br&gt;&lt;/span&gt;" style="rounded=0;whiteSpace=wrap;html=1;fillColor=#d5e8d4;strokeColor=#82b366;fontFamily=Verdana;fontSize=16;fontStyle=0" vertex="1" parent="1">
          <mxGeometry x="760" y="380" width="120" height="60" as="geometry"/>
        </mxCell>
        <mxCell id="TBT-of8__Zpy7oLFt57h-46" value="&lt;font style=&quot;font-size: 16px&quot;&gt;&lt;span style=&quot;font-size: 16px&quot;&gt;&lt;span style=&quot;font-size: 16px&quot;&gt;오프닝&lt;br&gt;&lt;/span&gt;다시보기&lt;br style=&quot;font-size: 16px&quot;&gt;&lt;/span&gt;&lt;/font&gt;" style="rounded=0;whiteSpace=wrap;html=1;fillColor=#d5e8d4;strokeColor=#82b366;fontFamily=Verdana;fontSize=16;fontStyle=0" vertex="1" parent="1">
          <mxGeometry x="760" y="460" width="120" height="60" as="geometry"/>
        </mxCell>
        <mxCell id="TBT-of8__Zpy7oLFt57h-52" value="&lt;font size=&quot;1&quot;&gt;&lt;b style=&quot;font-size: 20px&quot;&gt;산책하기&lt;/b&gt;&lt;/font&gt;" style="rounded=0;whiteSpace=wrap;html=1;fillColor=#dae8fc;strokeColor=#6c8ebf;fontFamily=Verdana;" vertex="1" parent="1">
          <mxGeometry x="560" y="460" width="120" height="60" as="geometry"/>
        </mxCell>
        <mxCell id="TBT-of8__Zpy7oLFt57h-53" value="&lt;font size=&quot;1&quot;&gt;&lt;b style=&quot;font-size: 20px&quot;&gt;상점&lt;/b&gt;&lt;/font&gt;" style="rounded=0;whiteSpace=wrap;html=1;fillColor=#d5e8d4;strokeColor=#82b366;fontFamily=Verdana;" vertex="1" parent="1">
          <mxGeometry x="160" y="280" width="120" height="60" as="geometry"/>
        </mxCell>
        <mxCell id="TBT-of8__Zpy7oLFt57h-55" value="&lt;span style=&quot;font-size: 20px&quot;&gt;&lt;b&gt;노트&lt;/b&gt;&lt;/span&gt;" style="rounded=0;whiteSpace=wrap;html=1;fillColor=#d5e8d4;strokeColor=#82b366;fontFamily=Verdana;" vertex="1" parent="1">
          <mxGeometry x="160" y="360" width="120" height="60" as="geometry"/>
        </mxCell>
        <mxCell id="TBT-of8__Zpy7oLFt57h-56" value="&lt;font size=&quot;1&quot;&gt;&lt;b style=&quot;font-size: 20px&quot;&gt;강아지&lt;/b&gt;&lt;/font&gt;" style="rounded=0;whiteSpace=wrap;html=1;fillColor=#d5e8d4;strokeColor=#82b366;fontFamily=Verdana;" vertex="1" parent="1">
          <mxGeometry x="160" y="440" width="120" height="60" as="geometry"/>
        </mxCell>
      </root>
    </mxGraphModel>
  </diagram>
</mxfile>
